<svg width="69" height="69" viewBox="0 0 69 69" fill="none" xmlns="http://www.w3.org/2000/svg">
<g clip-path="url(#clip0)">
<path d="M32.8274 0.0401476C14.6045 0.907815 0.224175 16.0839 0.279456 34.3274C0.296288 39.8839 1.63772 45.1285 4.00409 49.7625L0.370876 67.3985C0.174339 68.3525 1.03475 69.1878 1.98245 68.9634L19.2637 64.8691C23.7035 67.0807 28.6904 68.3581 33.9681 68.4386C52.5936 68.7231 68.124 53.934 68.7045 35.3155C69.3268 15.3577 52.855 -0.913659 32.8274 0.0401476ZM53.4476 53.1687C48.3866 58.2296 41.6577 61.0168 34.5005 61.0168C30.3097 61.0168 26.2974 60.0765 22.5748 58.2222L20.1681 57.0233L9.57297 59.5336L11.8032 48.7072L10.6175 46.3854C8.685 42.6007 7.70512 38.5081 7.70512 34.2214C7.70512 27.0641 10.4923 20.3353 15.5532 15.2742C20.569 10.2584 27.4077 7.42588 34.501 7.42588C41.6582 7.42604 48.3868 10.2132 53.4477 15.274C58.5087 20.3349 61.2959 27.0637 61.296 34.2209C61.2959 41.3144 58.4633 48.1531 53.4476 53.1687Z" fill="white"/>
<path d="M51.1083 41.6426L44.4797 39.7393C43.6082 39.4891 42.6698 39.7363 42.0348 40.3834L40.4138 42.0349C39.7303 42.7312 38.6931 42.955 37.7885 42.589C34.6528 41.32 28.0567 35.4552 26.3722 32.5217C25.8862 31.6755 25.9666 30.6176 26.5633 29.8454L27.9785 28.0146C28.533 27.2972 28.65 26.3338 28.2833 25.5046L25.4945 19.1971C24.8265 17.6864 22.8959 17.2466 21.6347 18.3133C19.7847 19.878 17.5896 22.2557 17.3228 24.8899C16.8523 29.5342 18.8441 35.3887 26.376 42.4185C35.0774 50.5399 42.0455 51.6129 46.5823 50.5138C49.1556 49.8906 51.2121 47.3919 52.51 45.346C53.3948 43.9511 52.6961 42.0986 51.1083 41.6426Z" fill="white"/>
</g>
<defs>
<clipPath id="clip0">
<rect width="69" height="69" fill="white"/>
</clipPath>
</defs>
</svg>
